<?xml version="1.0" encoding="UTF-8"?>
<!DOCTYPE svg PUBLIC "-//W3C//DTD SVG 1.1//EN" "http://www.w3.org/Graphics/SVG/1.1/DTD/svg11.dtd">
<!-- Creator: CorelDRAW Home & Student X6 -->
<svg xmlns="http://www.w3.org/2000/svg" xml:space="preserve" width="120px" height="120px" version="1.1" style="shape-rendering:geometricPrecision; text-rendering:geometricPrecision; image-rendering:optimizeQuality; fill-rule:evenodd; clip-rule:evenodd"
viewBox="0 0 120 120"
 xmlns:xlink="http://www.w3.org/1999/xlink">
 <defs>
  <style type="text/css">
   <![CDATA[
    .str0 {stroke:#2B2A29;stroke-width:0.999685}
    .str1 {stroke:#FFFF66;stroke-width:1.99937}
    .fil2 {fill:none}
    .fil0 {fill:#333333}
    .fil1 {fill:#FFFF66;fill-rule:nonzero}
   ]]>
  </style>
 </defs>
 <g id="Слой_x0020_1">
  <metadata id="CorelCorpID_0Corel-Layer"/>
  <polygon class="fil0 str0" points="1,119 119,119 119,1 1,1 "/>
  <path class="fil1" d="M64 91c0,-3 -3,-7 -6,-7 -4,0 -7,3 -7,6 0,4 3,7 7,7 4,0 6,-3 6,-7zm-3 -12c0,-1 -1,-3 -1,-4 0,-2 0,-4 2,-6 2,-3 5,-5 8,-7 6,-5 11,-11 11,-19 0,-13 -12,-19 -24,-19 -4,0 -7,1 -11,2l-6 10c4,-2 9,-4 14,-4 8,0 15,5 15,14 0,7 -5,11 -10,15 -5,4 -9,8 -9,15 0,1 0,3 1,4l8 -1z"/>
  <polygon class="fil2 str1" points="3,3 117,3 117,117 3,117 "/>
 </g>
</svg>
