<?xml version="1.0" encoding="UTF-8"?>
<!DOCTYPE svg PUBLIC "-//W3C//DTD SVG 1.1//EN" "http://www.w3.org/Graphics/SVG/1.1/DTD/svg11.dtd">
<!-- Creator: CorelDRAW Home & Student X6 -->
<svg xmlns="http://www.w3.org/2000/svg" xml:space="preserve" width="108px" height="108px" version="1.1" style="shape-rendering:geometricPrecision; text-rendering:geometricPrecision; image-rendering:optimizeQuality; fill-rule:evenodd; clip-rule:evenodd"
viewBox="0 0 1080000 1080000"
 xmlns:xlink="http://www.w3.org/1999/xlink">
 <defs>
  <style type="text/css">
   <![CDATA[
    .fil0 {fill:none}
    .fil2 {fill:#CC6633}
    .fil1 {fill:#CCCC33;fill-rule:nonzero}
    .fil3 {fill:yellow;fill-rule:nonzero}
   ]]>
  </style>
 </defs>
 <g id="Layer">
  <metadata id="CorelCorpID_0Corel-Layer"/>
  <rect class="fil0" x="3236" width="1080000" height="1080000"/>
  <g id="_206007352">
   <path id="yellow_line" class="fil1" d="M540000 615921c-16736,0 -26598,945 -33839,2280l1417 -3650 91358 0c7228,0 14173,-1098 20575,-3201 6154,390 13618,626 22925,626 33638,0 74315,-20598 105201,-57343 24780,-29492 43122,-69331 46394,-117283l-29102 0 3803 -14161 -25819 0 -2398 1110c-437,24 -921,12 -1311,12l-62728 0c-472,-47 -957,-94 -1417,-165l-2291 -957 -16240 0 -2161 7346c-6213,-3283 -13571,-4996 -21201,-4996l-42012 0 0 5610c-8256,-4748 -17906,-7429 -28110,-7417 -13819,-272 -26858,4394 -36945,12484 -7760,-7028 -18886,-10677 -30413,-10677l-25606 0 0 -531 -21142 0 -992 531 -50587 0 0 3354c-7831,-3780 -16949,-5705 -26327,-5705l-54697 0 0 14161 -30366 0c2528,36992 14020,69142 30508,95445l-142 59 0 26280c-25902,-32965 -44350,-76843 -46075,-129213l-260 -7925 7913 0 262087 0 262087 0 7913 0 -260 7925c-1819,55252 -22252,101055 -50409,134551 -33862,40287 -79087,62858 -116894,62858 -34783,0 -45945,-3165 -56776,-6248 -9213,-2610 -18177,-5161 -45661,-5161zm-43831 4642c-614,177 -1217,354 -1831,520 -10831,3083 -21992,6248 -56776,6248 -37807,0 -83031,-22571 -116894,-62858 -768,-909 -1512,-1819 -2268,-2752l20232 0c27413,29528 61134,47067 90720,49854l0 2976 50646 0 0 -5634c366,-71 720,-142 1075,-224 1335,1287 2835,2563 4547,3862l10547 8008z"/>
   <g>
    <path id="flame_mid_tongue" class="fil2" d="M540000 635067c15283,0 27673,12390 27673,27673 0,15283 -27673,59811 -27673,84366 0,-23657 -27673,-69083 -27673,-84366 0,-15283 12390,-27673 27673,-27673z"/>
    <path id="flame_left_tongue" class="fil2" d="M540000 635067c15283,0 27673,12390 27673,27673 0,15283 -68740,38386 -68740,62941 0,-23657 3094,-39720 8480,-59823 5386,-20091 17303,-30791 32587,-30791z"/>
    <path id="flame_right_tongue" class="fil2" d="M540000 635067c-15283,0 -27673,12390 -27673,27673 0,15283 68740,38386 68740,62941 0,-23657 -3094,-39720 -8480,-59823 -5386,-20091 -17303,-30791 -32587,-30791z"/>
   </g>
   <path id="letter_T" class="fil3" d="M713280 452469l14398 0c5280,0 11681,803 13760,6402l484 0 5114 -19039 -472 0c-2079,957 -4642,1122 -7358,1122l-63673 0c-2079,-331 -4157,-331 -6083,-1122l-484 0 -5598 19039 484 0c4961,-4642 12154,-6402 19039,-6402l14079 0 0 71350c0,7193 957,18874 -7039,21921l0 472 31677 0 0 -472c-8480,-4961 -8327,-11209 -8327,-20327l0 -72945z"/>
   <path id="letters_mid" class="fil3" d="M494941 579697l-20043 -47043c-650,-1488 -1500,-3083 -1500,-4795l0 -106 -18661 0 0 319c4902,2669 3732,6933 3307,9921l-6083 44681c-850,5764 -1488,10984 -5965,14941l0 319 17374 0 0 -319c-5008,-2244 -4264,-6933 -3413,-13441l6083 -45862 20268 48094c2563,5976 4051,8858 9390,12909l23882 -61110 6083 51402c0,3626 -638,6827 -4370,8008l0 319 20575 0 0 -319c-4264,-2988 -4795,-5870 -5433,-10890l-7039 -52358c0,-2457 744,-5551 3307,-6295l0 -319 -18449 0 0 106c0,2244 -756,4370 -1606,6614l-17705 45224zm55465 3295c0,4807 638,12697 -4701,14622l0 319 20268 0 0 -319c-5327,-2031 -4689,-9815 -4689,-14622l0 -40205c0,-4795 -638,-12685 4689,-14717l0 -319 -20268 0 0 319c5445,2031 4701,9815 4701,14717l0 40205zm27614 -425c0,6295 650,11421 -4689,15047l0 319 25594 0c23894,0 39992,-14717 39992,-35728 0,-21224 -15142,-34453 -39461,-34453l-26126 0 0 319c5445,1606 4689,9390 4689,14291l0 40205zm10890 -45957c3189,-756 6390,-1181 9591,-1181 17811,0 28264,9390 28264,28051 0,18449 -14185,26776 -30071,26776 -2669,0 -5232,-224 -7783,-756l0 -52890z"/>
   <path id="letter_R" class="fil3" d="M332965 439831l0 472c8150,3047 7039,14717 7039,22087l0 60307c0,7205 1110,19039 -7039,21921l0 472 30555 0 0 -472c-8161,-2882 -7205,-14563 -7205,-21921l0 -71669c3685,-638 7205,-1122 10878,-1276 10724,-484 20646,6236 20646,17752 0,15035 -14882,20953 -27685,22878l14717 22559 19524 24154c4795,5917 10075,7996 18555,7996l14717 0c-9118,-5752 -19193,-14079 -25913,-22394l-23043 -28961c13122,-3035 25441,-14079 25441,-28157 0,-14551 -11681,-25748 -33118,-25748l-38067 0z"/>
   <path id="letters_eport" class="fil3" d="M429673 478122l7890 0c3307,0 7783,-118 9496,2976l319 0 0 -11303 -319 0c-1287,638 -2988,638 -4701,638l-12685 0 0 -19831c3413,-638 7146,-744 10878,-744 4902,0 9272,425 12579,4264l319 0 0 -12484 -319 0c-1382,744 -3189,531 -5008,531l-34134 0 0 331c5445,2020 4807,9803 4807,14717l0 40205c0,4795 638,12685 -4807,14610l0 319 44480 0 4795 -13972 -319 0c-5327,4689 -12685,6933 -19724,6295l-13547 -1276 0 -25276zm40098 -35953l0 331c5339,2126 4689,9909 4689,14717l0 40205c0,4795 650,12685 -4795,14610l0 319 21224 0 0 -319c-5657,-3201 -5551,-7465 -5551,-13441l0 -48094c2457,-425 4913,-638 7465,-638 8539,0 15154,3732 15154,13110 0,10240 -9921,15898 -19098,16429 2457,1169 5126,1488 7795,1488 12047,0 23457,-7783 23457,-20043 0,-11953 -10559,-18673 -24425,-18673l-25913 0zm93106 -1807c-22394,-531 -39992,16429 -39992,36685 0,21862 17811,37016 38929,37016 21224,0 39248,-15791 39248,-37547 0,-19193 -15791,-36260 -38185,-36154zm-744 7677c16854,0 26764,15035 26764,30614 0,15886 -10346,27720 -26551,27720 -16748,0 -27307,-15354 -27307,-30283 0,-16110 10559,-28051 27094,-28051zm45650 -5870l0 331c5433,2020 4689,9803 4689,14717l0 40205c0,4795 744,12685 -4689,14610l0 319 20362 0 0 -319c-5433,-1925 -4795,-9709 -4795,-14610l0 -47776c2457,-437 4795,-756 7252,-862 7146,-319 13760,4169 13760,11846 0,10016 -9921,13961 -18449,15248l9803 15035 13016 16110c3201,3945 6720,5327 12378,5327l9803 0c-6071,-3839 -12791,-9390 -17280,-14929l-15354 -19299c8752,-2031 16961,-9390 16961,-18780 0,-9697 -7783,-17173 -22075,-17173l-25382 0z"/>
  </g>
 </g>
</svg>
